<svg width="700" height="700" viewBox="0 0 700 700" fill="none" xmlns="http://www.w3.org/2000/svg">
<path d="M87 176.307H614V269.44H87V176.307ZM351.361 310.832C471.917 310.832 560.611 375.508 560.611 466.916C560.611 558.324 471.917 623 351.361 623C231.667 623 142.972 558.324 142.972 466.916C142.972 375.508 231.667 310.832 351.361 310.832ZM351.361 406.552C298.833 406.552 260.083 427.248 260.083 466.916C260.083 506.584 298.833 527.28 351.361 527.28C403.889 527.28 443.5 506.584 443.5 466.916C443.5 427.248 403.889 406.552 351.361 406.552ZM294.528 78H409.056V258.229H294.528V78Z" fill="black"/>
</svg>
