<?xml version="1.0" encoding="UTF-8"?>
<svg id="_레이어_1" data-name="레이어 1" xmlns="http://www.w3.org/2000/svg" viewBox="0 0 700 700">
  <defs>
    <style>
      .cls-1 {
        fill: #fff;
      }
    </style>
  </defs>
  <path class="cls-1" d="m557.77,248.55c8.5,94.5,41.8,176.6,136.3,219.2l-72,98.4c-56.5-27.1-96-68.9-122.4-121.6-27.1,60.4-73.6,105.3-148.7,131.7-75.1-26.3-121.6-71.3-148.7-131.7-26.3,52.7-65.8,94.5-122.4,121.6L7.87,467.75c94.5-42.6,127.8-124.7,136.3-219.2H51.97v-98.4h283.5v98.4h-65.1c4.6,86.7,24.8,153.4,80.6,192.9,55.8-39.5,75.9-106.1,80.5-192.9h-65.8v-98.4h283.5v98.4h-91.4Z"/>
</svg>