<?xml version="1.0" encoding="UTF-8"?>
<svg id="_레이어_1" data-name="레이어 1" xmlns="http://www.w3.org/2000/svg" viewBox="0 0 700 700">
  <path d="m557.48,250.45c8.52,94.49,41.82,176.59,136.32,219.19l-72.03,98.36c-56.54-27.11-96.04-68.93-122.37-121.6-27.11,60.41-73.58,105.33-148.71,131.67-75.13-26.33-121.6-71.26-148.71-131.67-26.33,52.67-65.83,94.49-122.37,121.6L7.57,469.64c94.49-42.6,127.8-124.7,136.32-219.19H51.72v-98.36h283.47v98.36h-65.06c4.65,86.75,24.79,153.36,80.55,192.86,55.77-39.5,75.9-106.11,80.55-192.86h-65.83v-98.36h283.47v98.36h-91.39Z"/>
</svg>