<svg xmlns="http://www.w3.org/2000/svg" width="900pt" height="600pt" viewBox="0 0 899.99998 599.99997"><defs><clipPath id="a"><path d="M0 0h841.89v595.28H0Z"/></clipPath></defs><path fill="none" d="M900 600H0V0h900z" style="fill:#fff;fill-opacity:1;stroke:none"/><path fill="#003964" d="M792.687 433.857c-25.302-17.197-57.698-10.194-74.729 15.658-14.168 21.611-35.607 24.302-43.873 24.302-27.088 0-45.571-19.044-51.067-38.737h-.016c-.066-.215-.108-.384-.153-.561-.056-.222-.103-.434-.17-.662-2.158-8.23-2.7-12.141-2.7-20.878 0-47.071 48.328-99.501 117.878-99.501 71.263 0 112.04 54.242 122.57 84.394a36.106 36.106 0 0 1-.547-1.604c-20.214-58.97-76.128-101.356-141.99-101.356-82.817 0-149.997 67.143-149.997 150.029 0 74.07 53.421 137.46 127.539 137.46 59.08 0 98.805-33.128 117.006-78.803 9.998-24.987 2.928-54.334-19.751-69.74" style="stroke-width:2.64582" transform="matrix(.99984 0 0 .99984 -267.8 -219.864)"/><path fill="#ed193a" d="M861.348 400.785c-8.784-29.42-49.831-87.307-123.49-87.307-69.551 0-117.883 52.43-117.883 99.501 0 8.737.546 12.647 2.705 20.878-.9-3.606-1.366-7.196-1.366-10.702 0-49.038 49.09-83.005 99.552-83.005 68.336 0 123.718 55.383 123.718 123.687 0 53.54-30.824 99.922-75.578 122.179v.04c57.708-20.9 98.936-76.192 98.936-141.115 0-15.367-2.072-28.92-6.594-44.156" style="stroke-width:2.64582" transform="matrix(.99984 0 0 .99984 -267.8 -219.864)"/><g fill="#58595b" clip-path="url(#a)" transform="matrix(2.64922 0 0 2.64922 -680.178 -681.262)"><path d="M351.659 424.305h3.871v32.605h-3.871v-15.711h-4.354v15.525h-3.794V424.35h3.794v13.374h4.354Zm-24.703 2.008h13.702v3.59h-9.648v18.967h10.054v3.547h-14.108zM387.674 433.195h4.676v3.542h-4.676v8.442h-4.057v-20.874h4.057Zm-13.555 4.86c0-1.003-.358-1.86-1.06-2.579-.707-.719-1.561-1.079-2.565-1.079-.995 0-1.843.36-2.551 1.079-.71.719-1.062 1.576-1.062 2.579 0 .997.352 1.85 1.062 2.538a3.506 3.506 0 0 0 2.551 1.041c1.004 0 1.858-.346 2.565-1.041.702-.688 1.06-1.541 1.06-2.538m3.914.034c0 .976-.212 1.877-.607 2.708a8.182 8.182 0 0 1-1.592 2.227 8.044 8.044 0 0 1-2.426 1.495 7.734 7.734 0 0 1-2.951.557 7.65 7.65 0 0 1-2.933-.557 7.399 7.399 0 0 1-2.396-1.495 7.737 7.737 0 0 1-1.63-2.227 6.195 6.195 0 0 1-.596-2.708c0-.974.199-1.887.596-2.744a7.226 7.226 0 0 1 1.63-2.226 7.933 7.933 0 0 1 2.396-1.521 7.637 7.637 0 0 1 2.933-.567 7.72 7.72 0 0 1 2.951.567c.903.382 1.72.888 2.426 1.521a7.61 7.61 0 0 1 1.592 2.226c.395.857.607 1.77.607 2.744m-15.941 18.168v-9.906h4.057v6.355h22.218v3.551zm-1.455-26.025v-3.474h7.666v-3.102h4.309v3.102h7.724v3.474ZM419.906 424.305h4.062v20.874h-4.062Zm-10.522 4.464h-8.772v9.754h8.772zm-11.841 27.489v-10.891h4.019v7.304h22.695v3.587zm-.951-30.995h16.773V442h-16.773ZM456.621 424.968v9.723h-4.05v-6.142H431.49v-3.581Zm0 20.646v11.37h-4.05v-7.821h-21.454v-3.549h10.926v-4.779h-12.969v-3.544h29.963v3.544h-12.973v4.779zM487.732 441.6v-7.056h-6.064v-3.513h6.064v-6.726h4.051V441.6Zm-2.709 8.333c0-1.228-.441-2.265-1.33-3.142-.893-.882-1.957-1.318-3.197-1.318-1.217 0-2.272.436-3.145 1.318-.877.877-1.314 1.914-1.314 3.142 0 1.232.437 2.287 1.314 3.152.873.871 1.928 1.303 3.145 1.303 1.24 0 2.304-.432 3.197-1.303.889-.865 1.33-1.92 1.33-3.152m3.987.034a7.252 7.252 0 0 1-.676 3.091 8.677 8.677 0 0 1-1.807 2.54 8.533 8.533 0 0 1-2.689 1.733 8.554 8.554 0 0 1-3.31.639 8.579 8.579 0 0 1-3.286-.639c-1.05-.429-1.951-1.003-2.702-1.734a8.476 8.476 0 0 1-1.812-2.539 7.252 7.252 0 0 1-.676-3.09c0-1.097.227-2.12.676-3.089a8.578 8.578 0 0 1 1.812-2.542 8.122 8.122 0 0 1 2.702-1.73 8.48 8.48 0 0 1 3.286-.652c1.175 0 2.272.217 3.31.652a8.303 8.303 0 0 1 2.689 1.73 8.784 8.784 0 0 1 1.807 2.542c.449.969.676 1.992.676 3.088m-25.84-21.237v-3.467h18.64v3.467h-7.967l8.293 10.134-2.811 2.335-6.733-8.37-6.606 8.91-2.924-2.333 8.299-10.676zM519.834 432.473h-17.143v4.495h17.143Zm-17.143-3.507h17.143v-4.129h4.016v15.681h-25.145v-15.681h3.986zm-6.395 15.935h29.964v3.578h-12.969v8.415h-4.061v-8.415h-12.934z"/></g></svg>