<?xml version="1.0" encoding="UTF-8"?>
<svg id="_레이어_1" data-name="레이어 1" xmlns="http://www.w3.org/2000/svg" viewBox="0 0 700 700">
  <defs>
    <style>
      .cls-1 {
        fill: #fff;
      }
    </style>
  </defs>
  <path class="cls-1" d="m545.62,199.85c0,103,28.7,201.4,135.5,247.1l-67.4,89.8c-66.6-29.4-108.4-82.1-132.4-147.2-24,66.6-65.8,123.1-132.4,155.7-65.1-32.5-105.3-89.1-129.3-154.9-24,65.1-65.8,117-132.4,146.4l-67.4-89.8c106.9-45.7,135.5-144.1,135.5-247.1v-27.9h125.5v27.9c0,75.1,15.5,153.4,68.9,210.7,54.2-57.3,70.5-135.5,70.5-210.7v-27.9h125.5v27.9h-.1Z"/>
</svg>