<?xml version="1.0" encoding="UTF-8"?>
<svg id="_레이어_1" data-name="레이어 1" xmlns="http://www.w3.org/2000/svg" viewBox="0 0 700 700">
  <path d="m546.63,201.65c0,103.01,28.66,201.38,135.54,247.07l-67.38,89.84c-66.61-29.43-108.43-82.1-132.44-147.16-24.01,66.61-65.83,123.15-132.44,155.68-65.06-32.53-105.33-89.07-129.34-154.9-24.01,65.06-65.83,116.95-132.44,146.38l-67.38-89.84c106.88-45.7,135.54-144.06,135.54-247.07v-27.88h125.47v27.88c0,75.13,15.49,153.36,68.93,210.67,54.22-57.31,70.48-135.54,70.48-210.67v-27.88h125.47v27.88Z"/>
</svg>